<?xml version="1.0" encoding="UTF-8"?>
<!DOCTYPE svg PUBLIC "-//W3C//DTD SVG 1.1//EN" "http://www.w3.org/Graphics/SVG/1.1/DTD/svg11.dtd">
<!-- Creator: CorelDRAW 2017 -->
<svg xmlns="http://www.w3.org/2000/svg" xml:space="preserve" width="8.4666mm" height="8.4666mm" version="1.1" style="shape-rendering:geometricPrecision; text-rendering:geometricPrecision; image-rendering:optimizeQuality; fill-rule:evenodd; clip-rule:evenodd"
viewBox="0 0 847 847"
 xmlns:xlink="http://www.w3.org/1999/xlink">
 <defs>
  <style type="text/css">
   <![CDATA[
    .fil0 {fill:#9C9C9C}
   ]]>
  </style>
 </defs>
 <g id="Camada_x0020_1">
  <metadata id="CorelCorpID_0Corel-Layer"/>
  <path class="fil0" d="M222 510c13,32 36,57 61,78 60,50 146,57 217,27 34,-14 61,-39 79,-62 43,-53 63,-139 28,-216 -15,-34 -37,-61 -61,-80 -23,-18 -67,-43 -97,-43 14,19 54,41 65,117 9,58 -10,105 -36,140 -41,55 -119,86 -194,67 -12,-3 -23,-7 -33,-12 -7,-3 -25,-15 -29,-16z"/>
 </g>
</svg>
