<?xml version="1.0" encoding="UTF-8"?>
<!DOCTYPE svg PUBLIC "-//W3C//DTD SVG 1.1//EN" "http://www.w3.org/Graphics/SVG/1.1/DTD/svg11.dtd">
<!-- Creator: CorelDRAW 2017 -->
<svg xmlns="http://www.w3.org/2000/svg" xml:space="preserve" width="16.9332mm" height="16.9332mm" version="1.1" shape-rendering="geometricPrecision" text-rendering="geometricPrecision" image-rendering="optimizeQuality" fill-rule="evenodd" clip-rule="evenodd"
viewBox="0 0 1693 1693"
 xmlns:xlink="http://www.w3.org/1999/xlink">
 <g id="Camada_x0020_1">
  <metadata id="CorelCorpID_0Corel-Layer"/>
  <path fill="#9C9C9C" d="M361 204c-45,13 -34,63 -34,113l0 1018c0,32 -7,116 9,137 30,39 68,6 96,-11l447 -282c145,-91 307,-190 447,-282 15,-10 32,-16 39,-34 18,-45 -28,-64 -57,-81 -15,-10 -30,-19 -45,-28 -62,-38 -120,-76 -180,-113l-625 -394c-31,-20 -71,-52 -98,-44z"/>
 </g>
</svg>
